<svg width="208" height="255" viewBox="0 0 208 255" fill="none" xmlns="http://www.w3.org/2000/svg">
<circle opacity="0.102052" cx="103.7" cy="104.2" r="100.7" stroke="white" stroke-width="5.7"/>
<path d="M31.6362 174.537C49.9229 193.27 75.4533 204.9 103.7 204.9C159.315 204.9 204.4 159.815 204.4 104.2C204.4 48.5849 159.315 3.5 103.7 3.5" stroke="#FE5B81" stroke-width="5.7" stroke-linecap="round"/>
<circle cx="31.85" cy="174.75" r="3" fill="white"/>
<path d="M77.9469 131.34C77.9469 131.681 77.9149 132.012 77.8509 132.332C77.7869 132.652 77.6803 132.94 77.5309 133.196C77.3816 133.441 77.1789 133.639 76.9229 133.788C76.6776 133.937 76.3683 134.012 75.9949 134.012C75.6429 134.012 75.3389 133.937 75.0829 133.788C74.8376 133.628 74.6296 133.425 74.4589 133.18C74.2989 132.924 74.1816 132.636 74.1069 132.316C74.0323 131.996 73.9949 131.676 73.9949 131.356C73.9949 131.015 74.0269 130.689 74.0909 130.38C74.1656 130.06 74.2776 129.777 74.4269 129.532C74.5869 129.287 74.7949 129.089 75.0509 128.94C75.3069 128.791 75.6216 128.716 75.9949 128.716C76.3683 128.716 76.6776 128.791 76.9229 128.94C77.1683 129.089 77.3656 129.287 77.5149 129.532C77.6749 129.767 77.7869 130.044 77.8509 130.364C77.9149 130.673 77.9469 130.999 77.9469 131.34ZM77.9789 134.444V135.5H80.1389V124.076H77.8669V128.236H77.8349C77.5789 127.831 77.2269 127.527 76.7789 127.324C76.3416 127.111 75.8776 127.004 75.3869 127.004C74.7789 127.004 74.2456 127.127 73.7869 127.372C73.3283 127.607 72.9443 127.921 72.6349 128.316C72.3363 128.711 72.1069 129.169 71.9469 129.692C71.7976 130.204 71.7229 130.737 71.7229 131.292C71.7229 131.868 71.7976 132.423 71.9469 132.956C72.1069 133.489 72.3363 133.964 72.6349 134.38C72.9443 134.785 73.3336 135.111 73.8029 135.356C74.2723 135.591 74.8163 135.708 75.4349 135.708C75.9789 135.708 76.4643 135.612 76.8909 135.42C77.3283 135.217 77.6803 134.892 77.9469 134.444H77.9789ZM81.7602 129.772C81.7922 129.239 81.9255 128.796 82.1602 128.444C82.3949 128.092 82.6935 127.809 83.0562 127.596C83.4189 127.383 83.8242 127.233 84.2722 127.148C84.7309 127.052 85.1895 127.004 85.6482 127.004C86.0642 127.004 86.4855 127.036 86.9122 127.1C87.3389 127.153 87.7282 127.265 88.0802 127.436C88.4322 127.607 88.7202 127.847 88.9442 128.156C89.1682 128.455 89.2802 128.855 89.2802 129.356V133.66C89.2802 134.033 89.3015 134.391 89.3442 134.732C89.3869 135.073 89.4615 135.329 89.5682 135.5H87.2642C87.2215 135.372 87.1842 135.244 87.1522 135.116C87.1309 134.977 87.1149 134.839 87.1042 134.7C86.7415 135.073 86.3149 135.335 85.8242 135.484C85.3335 135.633 84.8322 135.708 84.3202 135.708C83.9255 135.708 83.5575 135.66 83.2162 135.564C82.8749 135.468 82.5762 135.319 82.3202 135.116C82.0642 134.913 81.8615 134.657 81.7122 134.348C81.5735 134.039 81.5042 133.671 81.5042 133.244C81.5042 132.775 81.5842 132.391 81.7442 132.092C81.9149 131.783 82.1282 131.537 82.3842 131.356C82.6509 131.175 82.9495 131.041 83.2802 130.956C83.6215 130.86 83.9629 130.785 84.3042 130.732C84.6455 130.679 84.9815 130.636 85.3122 130.604C85.6429 130.572 85.9362 130.524 86.1922 130.46C86.4482 130.396 86.6509 130.305 86.8002 130.188C86.9495 130.06 87.0189 129.879 87.0082 129.644C87.0082 129.399 86.9655 129.207 86.8802 129.068C86.8055 128.919 86.6989 128.807 86.5602 128.732C86.4322 128.647 86.2775 128.593 86.0962 128.572C85.9255 128.54 85.7389 128.524 85.5362 128.524C85.0882 128.524 84.7362 128.62 84.4802 128.812C84.2242 129.004 84.0749 129.324 84.0322 129.772H81.7602ZM87.0082 131.452C86.9122 131.537 86.7895 131.607 86.6402 131.66C86.5015 131.703 86.3469 131.74 86.1762 131.772C86.0162 131.804 85.8455 131.831 85.6642 131.852C85.4829 131.873 85.3015 131.9 85.1202 131.932C84.9495 131.964 84.7789 132.007 84.6082 132.06C84.4482 132.113 84.3042 132.188 84.1762 132.284C84.0589 132.369 83.9629 132.481 83.8882 132.62C83.8135 132.759 83.7762 132.935 83.7762 133.148C83.7762 133.351 83.8135 133.521 83.8882 133.66C83.9629 133.799 84.0642 133.911 84.1922 133.996C84.3202 134.071 84.4695 134.124 84.6402 134.156C84.8109 134.188 84.9869 134.204 85.1682 134.204C85.6162 134.204 85.9629 134.129 86.2082 133.98C86.4535 133.831 86.6349 133.655 86.7522 133.452C86.8695 133.239 86.9389 133.025 86.9602 132.812C86.9922 132.599 87.0082 132.428 87.0082 132.3V131.452ZM95.1237 136.524L98.5797 127.228H96.2277L94.4197 132.892H94.3877L92.5157 127.228H90.0997L92.9957 134.988C93.0597 135.148 93.0917 135.319 93.0917 135.5C93.0917 135.745 93.017 135.969 92.8677 136.172C92.729 136.375 92.5104 136.492 92.2117 136.524C91.9877 136.535 91.7637 136.529 91.5397 136.508C91.3157 136.487 91.097 136.465 90.8837 136.444V138.316C91.1184 138.337 91.3477 138.353 91.5717 138.364C91.8064 138.385 92.041 138.396 92.2757 138.396C93.0544 138.396 93.6624 138.252 94.0997 137.964C94.537 137.676 94.8784 137.196 95.1237 136.524ZM101.101 132.812H98.9406C98.9619 133.367 99.0846 133.831 99.3086 134.204C99.5432 134.567 99.8366 134.86 100.189 135.084C100.551 135.308 100.962 135.468 101.421 135.564C101.879 135.66 102.349 135.708 102.829 135.708C103.298 135.708 103.757 135.66 104.205 135.564C104.663 135.479 105.069 135.324 105.421 135.1C105.773 134.876 106.055 134.583 106.269 134.22C106.493 133.847 106.605 133.388 106.605 132.844C106.605 132.46 106.53 132.14 106.381 131.884C106.231 131.617 106.034 131.399 105.789 131.228C105.543 131.047 105.261 130.903 104.941 130.796C104.631 130.689 104.311 130.599 103.981 130.524C103.661 130.449 103.346 130.38 103.037 130.316C102.727 130.252 102.45 130.183 102.205 130.108C101.97 130.023 101.778 129.916 101.629 129.788C101.479 129.66 101.405 129.495 101.405 129.292C101.405 129.121 101.447 128.988 101.533 128.892C101.618 128.785 101.719 128.705 101.837 128.652C101.965 128.599 102.103 128.567 102.253 128.556C102.402 128.535 102.541 128.524 102.669 128.524C103.074 128.524 103.426 128.604 103.725 128.764C104.023 128.913 104.189 129.207 104.221 129.644H106.381C106.338 129.132 106.205 128.711 105.981 128.38C105.767 128.039 105.495 127.767 105.165 127.564C104.834 127.361 104.455 127.217 104.029 127.132C103.613 127.047 103.181 127.004 102.733 127.004C102.285 127.004 101.847 127.047 101.421 127.132C100.994 127.207 100.61 127.345 100.269 127.548C99.9272 127.74 99.6499 128.007 99.4366 128.348C99.2339 128.689 99.1326 129.127 99.1326 129.66C99.1326 130.023 99.2072 130.332 99.3566 130.588C99.5059 130.833 99.7032 131.041 99.9486 131.212C100.194 131.372 100.471 131.505 100.781 131.612C101.101 131.708 101.426 131.793 101.757 131.868C102.567 132.039 103.197 132.209 103.645 132.38C104.103 132.551 104.333 132.807 104.333 133.148C104.333 133.351 104.285 133.521 104.189 133.66C104.093 133.788 103.97 133.895 103.821 133.98C103.682 134.055 103.522 134.113 103.341 134.156C103.17 134.188 103.005 134.204 102.845 134.204C102.621 134.204 102.402 134.177 102.189 134.124C101.986 134.071 101.805 133.991 101.645 133.884C101.485 133.767 101.351 133.623 101.245 133.452C101.149 133.271 101.101 133.057 101.101 132.812ZM112.451 124.076V135.5H114.723V124.076H112.451ZM122.08 130.476H118.384C118.395 130.316 118.427 130.135 118.48 129.932C118.544 129.729 118.646 129.537 118.784 129.356C118.934 129.175 119.126 129.025 119.36 128.908C119.606 128.78 119.91 128.716 120.272 128.716C120.827 128.716 121.238 128.865 121.504 129.164C121.782 129.463 121.974 129.9 122.08 130.476ZM118.384 131.916H124.352C124.395 131.276 124.342 130.663 124.192 130.076C124.043 129.489 123.798 128.967 123.456 128.508C123.126 128.049 122.699 127.687 122.176 127.42C121.654 127.143 121.04 127.004 120.336 127.004C119.707 127.004 119.131 127.116 118.608 127.34C118.096 127.564 117.654 127.873 117.28 128.268C116.907 128.652 116.619 129.111 116.416 129.644C116.214 130.177 116.112 130.753 116.112 131.372C116.112 132.012 116.208 132.599 116.4 133.132C116.603 133.665 116.886 134.124 117.248 134.508C117.611 134.892 118.054 135.191 118.576 135.404C119.099 135.607 119.686 135.708 120.336 135.708C121.275 135.708 122.075 135.495 122.736 135.068C123.398 134.641 123.888 133.932 124.208 132.94H122.208C122.134 133.196 121.931 133.441 121.6 133.676C121.27 133.9 120.875 134.012 120.416 134.012C119.776 134.012 119.286 133.847 118.944 133.516C118.603 133.185 118.416 132.652 118.384 131.916ZM126.196 128.748V135.5H128.468V128.748H130.036V127.228H128.468V126.732C128.468 126.391 128.532 126.151 128.66 126.012C128.799 125.863 129.023 125.788 129.332 125.788C129.62 125.788 129.897 125.804 130.164 125.836V124.14C129.972 124.129 129.775 124.119 129.572 124.108C129.369 124.087 129.167 124.076 128.964 124.076C128.036 124.076 127.343 124.311 126.884 124.78C126.425 125.249 126.196 125.852 126.196 126.588V127.228H124.836V128.748H126.196ZM133.908 127.228V124.748H131.636V127.228H130.26V128.748H131.636V133.628C131.636 134.044 131.705 134.38 131.844 134.636C131.983 134.892 132.169 135.089 132.404 135.228C132.649 135.367 132.927 135.457 133.236 135.5C133.556 135.553 133.892 135.58 134.244 135.58C134.468 135.58 134.697 135.575 134.932 135.564C135.167 135.553 135.38 135.532 135.572 135.5V133.74C135.465 133.761 135.353 133.777 135.236 133.788C135.119 133.799 134.996 133.804 134.868 133.804C134.484 133.804 134.228 133.74 134.1 133.612C133.972 133.484 133.908 133.228 133.908 132.844V128.748H135.572V127.228H133.908Z" fill="white"/>
<path d="M65.8458 144.932H67.2138V148.1H67.2378C67.3338 147.948 67.4498 147.812 67.5858 147.692C67.7218 147.572 67.8698 147.472 68.0298 147.392C68.1978 147.304 68.3698 147.24 68.5458 147.2C68.7298 147.152 68.9098 147.128 69.0858 147.128C69.5738 147.128 69.9978 147.216 70.3578 147.392C70.7258 147.56 71.0298 147.796 71.2698 148.1C71.5098 148.396 71.6898 148.744 71.8098 149.144C71.9298 149.544 71.9898 149.972 71.9898 150.428C71.9898 150.844 71.9338 151.248 71.8218 151.64C71.7178 152.032 71.5538 152.38 71.3298 152.684C71.1138 152.98 70.8378 153.22 70.5018 153.404C70.1658 153.58 69.7698 153.668 69.3138 153.668C69.1058 153.668 68.8938 153.652 68.6778 153.62C68.4698 153.596 68.2698 153.544 68.0778 153.464C67.8858 153.384 67.7098 153.28 67.5498 153.152C67.3978 153.024 67.2698 152.856 67.1658 152.648H67.1418V153.5H65.8458V144.932ZM70.6218 150.404C70.6218 150.124 70.5858 149.852 70.5138 149.588C70.4418 149.324 70.3338 149.092 70.1898 148.892C70.0458 148.684 69.8658 148.52 69.6498 148.4C69.4338 148.272 69.1858 148.208 68.9058 148.208C68.3298 148.208 67.8938 148.408 67.5978 148.808C67.3098 149.208 67.1658 149.74 67.1658 150.404C67.1658 150.716 67.2018 151.008 67.2738 151.28C67.3538 151.544 67.4698 151.772 67.6218 151.964C67.7738 152.156 67.9538 152.308 68.1618 152.42C68.3778 152.532 68.6258 152.588 68.9058 152.588C69.2178 152.588 69.4818 152.524 69.6978 152.396C69.9138 152.268 70.0898 152.104 70.2258 151.904C70.3698 151.696 70.4698 151.464 70.5258 151.208C70.5898 150.944 70.6218 150.676 70.6218 150.404ZM77.4058 149.852C77.3898 149.636 77.3418 149.428 77.2618 149.228C77.1898 149.028 77.0858 148.856 76.9498 148.712C76.8218 148.56 76.6618 148.44 76.4698 148.352C76.2858 148.256 76.0778 148.208 75.8458 148.208C75.6058 148.208 75.3858 148.252 75.1858 148.34C74.9938 148.42 74.8258 148.536 74.6818 148.688C74.5458 148.832 74.4338 149.004 74.3458 149.204C74.2658 149.404 74.2218 149.62 74.2138 149.852H77.4058ZM74.2138 150.752C74.2138 150.992 74.2458 151.224 74.3098 151.448C74.3818 151.672 74.4858 151.868 74.6218 152.036C74.7578 152.204 74.9298 152.34 75.1378 152.444C75.3458 152.54 75.5938 152.588 75.8818 152.588C76.2818 152.588 76.6018 152.504 76.8418 152.336C77.0898 152.16 77.2738 151.9 77.3938 151.556H78.6898C78.6178 151.892 78.4938 152.192 78.3178 152.456C78.1418 152.72 77.9298 152.944 77.6818 153.128C77.4338 153.304 77.1538 153.436 76.8418 153.524C76.5378 153.62 76.2178 153.668 75.8818 153.668C75.3938 153.668 74.9618 153.588 74.5858 153.428C74.2098 153.268 73.8898 153.044 73.6258 152.756C73.3698 152.468 73.1738 152.124 73.0378 151.724C72.9098 151.324 72.8458 150.884 72.8458 150.404C72.8458 149.964 72.9138 149.548 73.0498 149.156C73.1938 148.756 73.3938 148.408 73.6498 148.112C73.9138 147.808 74.2298 147.568 74.5978 147.392C74.9658 147.216 75.3818 147.128 75.8458 147.128C76.3338 147.128 76.7698 147.232 77.1538 147.44C77.5458 147.64 77.8698 147.908 78.1258 148.244C78.3818 148.58 78.5658 148.968 78.6778 149.408C78.7978 149.84 78.8298 150.288 78.7738 150.752H74.2138ZM79.2018 147.296H80.2218V146.78C80.2218 146.388 80.2698 146.072 80.3658 145.832C80.4618 145.584 80.5898 145.396 80.7498 145.268C80.9098 145.132 81.0898 145.044 81.2898 145.004C81.4978 144.956 81.7138 144.932 81.9378 144.932C82.3778 144.932 82.6978 144.96 82.8978 145.016V146.084C82.8098 146.06 82.7138 146.044 82.6098 146.036C82.5138 146.02 82.3978 146.012 82.2617 146.012C82.0778 146.012 81.9178 146.056 81.7818 146.144C81.6538 146.232 81.5898 146.404 81.5898 146.66V147.296H82.7538V148.316H81.5898V153.5H80.2218V148.316H79.2018V147.296ZM86.4429 153.668C85.9469 153.668 85.5029 153.588 85.1109 153.428C84.7269 153.26 84.3989 153.032 84.1269 152.744C83.8629 152.456 83.6589 152.112 83.5149 151.712C83.3789 151.312 83.3109 150.872 83.3109 150.392C83.3109 149.92 83.3789 149.484 83.5149 149.084C83.6589 148.684 83.8629 148.34 84.1269 148.052C84.3989 147.764 84.7269 147.54 85.1109 147.38C85.5029 147.212 85.9469 147.128 86.4429 147.128C86.9389 147.128 87.3789 147.212 87.7629 147.38C88.1549 147.54 88.4829 147.764 88.7469 148.052C89.0189 148.34 89.2229 148.684 89.3589 149.084C89.5029 149.484 89.5749 149.92 89.5749 150.392C89.5749 150.872 89.5029 151.312 89.3589 151.712C89.2229 152.112 89.0189 152.456 88.7469 152.744C88.4829 153.032 88.1549 153.26 87.7629 153.428C87.3789 153.588 86.9389 153.668 86.4429 153.668ZM86.4429 152.588C86.7469 152.588 87.0109 152.524 87.2349 152.396C87.4589 152.268 87.6429 152.1 87.7869 151.892C87.9309 151.684 88.0349 151.452 88.0989 151.196C88.1709 150.932 88.2069 150.664 88.2069 150.392C88.2069 150.128 88.1709 149.864 88.0989 149.6C88.0349 149.336 87.9309 149.104 87.7869 148.904C87.6429 148.696 87.4589 148.528 87.2349 148.4C87.0109 148.272 86.7469 148.208 86.4429 148.208C86.1389 148.208 85.8749 148.272 85.6509 148.4C85.4269 148.528 85.2429 148.696 85.0989 148.904C84.9549 149.104 84.8469 149.336 84.7749 149.6C84.7109 149.864 84.6789 150.128 84.6789 150.392C84.6789 150.664 84.7109 150.932 84.7749 151.196C84.8469 151.452 84.9549 151.684 85.0989 151.892C85.2429 152.1 85.4269 152.268 85.6509 152.396C85.8749 152.524 86.1389 152.588 86.4429 152.588ZM90.7122 147.296H91.9962V148.496H92.0202C92.0602 148.328 92.1362 148.164 92.2482 148.004C92.3682 147.844 92.5082 147.7 92.6682 147.572C92.8362 147.436 93.0202 147.328 93.2202 147.248C93.4202 147.168 93.6242 147.128 93.8322 147.128C93.9922 147.128 94.1002 147.132 94.1562 147.14C94.2202 147.148 94.2842 147.156 94.3482 147.164V148.484C94.2522 148.468 94.1522 148.456 94.0482 148.448C93.9522 148.432 93.8562 148.424 93.7602 148.424C93.5282 148.424 93.3082 148.472 93.1002 148.568C92.9002 148.656 92.7242 148.792 92.5722 148.976C92.4202 149.152 92.3002 149.372 92.2122 149.636C92.1242 149.9 92.0802 150.204 92.0802 150.548V153.5H90.7122V147.296ZM98.98 149.852C98.964 149.636 98.916 149.428 98.836 149.228C98.764 149.028 98.66 148.856 98.524 148.712C98.396 148.56 98.236 148.44 98.044 148.352C97.86 148.256 97.652 148.208 97.42 148.208C97.18 148.208 96.96 148.252 96.76 148.34C96.568 148.42 96.4 148.536 96.256 148.688C96.12 148.832 96.008 149.004 95.92 149.204C95.84 149.404 95.796 149.62 95.788 149.852H98.98ZM95.788 150.752C95.788 150.992 95.82 151.224 95.884 151.448C95.956 151.672 96.06 151.868 96.196 152.036C96.332 152.204 96.504 152.34 96.712 152.444C96.92 152.54 97.168 152.588 97.456 152.588C97.856 152.588 98.176 152.504 98.416 152.336C98.664 152.16 98.848 151.9 98.968 151.556H100.264C100.192 151.892 100.068 152.192 99.892 152.456C99.716 152.72 99.504 152.944 99.256 153.128C99.008 153.304 98.728 153.436 98.416 153.524C98.112 153.62 97.792 153.668 97.456 153.668C96.968 153.668 96.536 153.588 96.16 153.428C95.784 153.268 95.464 153.044 95.2 152.756C94.944 152.468 94.748 152.124 94.612 151.724C94.484 151.324 94.42 150.884 94.42 150.404C94.42 149.964 94.488 149.548 94.624 149.156C94.768 148.756 94.968 148.408 95.224 148.112C95.488 147.808 95.804 147.568 96.172 147.392C96.54 147.216 96.956 147.128 97.42 147.128C97.908 147.128 98.344 147.232 98.728 147.44C99.12 147.64 99.444 147.908 99.7 148.244C99.956 148.58 100.14 148.968 100.252 149.408C100.372 149.84 100.404 150.288 100.348 150.752H95.788ZM104.764 144.932H106.132V153.5H104.764V144.932ZM112.818 152.12C112.818 152.288 112.838 152.408 112.878 152.48C112.926 152.552 113.014 152.588 113.142 152.588C113.182 152.588 113.23 152.588 113.286 152.588C113.342 152.588 113.406 152.58 113.478 152.564V153.512C113.43 153.528 113.366 153.544 113.286 153.56C113.214 153.584 113.138 153.604 113.058 153.62C112.978 153.636 112.898 153.648 112.818 153.656C112.738 153.664 112.67 153.668 112.614 153.668C112.334 153.668 112.102 153.612 111.918 153.5C111.734 153.388 111.614 153.192 111.558 152.912C111.286 153.176 110.95 153.368 110.55 153.488C110.158 153.608 109.778 153.668 109.41 153.668C109.13 153.668 108.862 153.628 108.606 153.548C108.35 153.476 108.122 153.368 107.922 153.224C107.73 153.072 107.574 152.884 107.454 152.66C107.342 152.428 107.286 152.16 107.286 151.856C107.286 151.472 107.354 151.16 107.49 150.92C107.634 150.68 107.818 150.492 108.042 150.356C108.274 150.22 108.53 150.124 108.81 150.068C109.098 150.004 109.386 149.956 109.674 149.924C109.922 149.876 110.158 149.844 110.382 149.828C110.606 149.804 110.802 149.768 110.97 149.72C111.146 149.672 111.282 149.6 111.378 149.504C111.482 149.4 111.534 149.248 111.534 149.048C111.534 148.872 111.49 148.728 111.402 148.616C111.322 148.504 111.218 148.42 111.09 148.364C110.97 148.3 110.834 148.26 110.682 148.244C110.53 148.22 110.386 148.208 110.25 148.208C109.866 148.208 109.55 148.288 109.302 148.448C109.054 148.608 108.914 148.856 108.882 149.192H107.514C107.538 148.792 107.634 148.46 107.802 148.196C107.97 147.932 108.182 147.72 108.438 147.56C108.702 147.4 108.998 147.288 109.326 147.224C109.654 147.16 109.99 147.128 110.334 147.128C110.638 147.128 110.938 147.16 111.234 147.224C111.53 147.288 111.794 147.392 112.026 147.536C112.266 147.68 112.458 147.868 112.602 148.1C112.746 148.324 112.818 148.6 112.818 148.928V152.12ZM111.45 150.392C111.242 150.528 110.986 150.612 110.682 150.644C110.378 150.668 110.074 150.708 109.77 150.764C109.626 150.788 109.486 150.824 109.35 150.872C109.214 150.912 109.094 150.972 108.99 151.052C108.886 151.124 108.802 151.224 108.738 151.352C108.682 151.472 108.654 151.62 108.654 151.796C108.654 151.948 108.698 152.076 108.786 152.18C108.874 152.284 108.978 152.368 109.098 152.432C109.226 152.488 109.362 152.528 109.506 152.552C109.658 152.576 109.794 152.588 109.914 152.588C110.066 152.588 110.23 152.568 110.406 152.528C110.582 152.488 110.746 152.42 110.898 152.324C111.058 152.228 111.19 152.108 111.294 151.964C111.398 151.812 111.45 151.628 111.45 151.412V150.392ZM119.738 153.5H118.394V152.636H118.37C118.202 152.948 117.95 153.2 117.614 153.392C117.286 153.576 116.95 153.668 116.606 153.668C115.79 153.668 115.198 153.468 114.83 153.068C114.47 152.66 114.29 152.048 114.29 151.232V147.296H115.658V151.1C115.658 151.644 115.762 152.028 115.97 152.252C116.178 152.476 116.47 152.588 116.846 152.588C117.134 152.588 117.374 152.544 117.566 152.456C117.758 152.368 117.914 152.252 118.034 152.108C118.154 151.956 118.238 151.776 118.286 151.568C118.342 151.36 118.37 151.136 118.37 150.896V147.296H119.738V153.5ZM121.181 147.296H122.477V148.208L122.501 148.232C122.709 147.888 122.981 147.62 123.317 147.428C123.653 147.228 124.025 147.128 124.433 147.128C125.113 147.128 125.649 147.304 126.041 147.656C126.433 148.008 126.629 148.536 126.629 149.24V153.5H125.261V149.6C125.245 149.112 125.141 148.76 124.949 148.544C124.757 148.32 124.457 148.208 124.049 148.208C123.817 148.208 123.609 148.252 123.425 148.34C123.241 148.42 123.085 148.536 122.957 148.688C122.829 148.832 122.729 149.004 122.657 149.204C122.585 149.404 122.549 149.616 122.549 149.84V153.5H121.181V147.296ZM132.26 149.372C132.204 148.988 132.048 148.7 131.792 148.508C131.544 148.308 131.228 148.208 130.844 148.208C130.668 148.208 130.48 148.24 130.28 148.304C130.08 148.36 129.896 148.472 129.728 148.64C129.56 148.8 129.42 149.028 129.308 149.324C129.196 149.612 129.14 149.992 129.14 150.464C129.14 150.72 129.168 150.976 129.224 151.232C129.288 151.488 129.384 151.716 129.512 151.916C129.648 152.116 129.82 152.28 130.028 152.408C130.236 152.528 130.488 152.588 130.784 152.588C131.184 152.588 131.512 152.464 131.768 152.216C132.032 151.968 132.196 151.62 132.26 151.172H133.628C133.5 151.98 133.192 152.6 132.704 153.032C132.224 153.456 131.584 153.668 130.784 153.668C130.296 153.668 129.864 153.588 129.488 153.428C129.12 153.26 128.808 153.036 128.552 152.756C128.296 152.468 128.1 152.128 127.964 151.736C127.836 151.344 127.772 150.92 127.772 150.464C127.772 150 127.836 149.564 127.964 149.156C128.092 148.748 128.284 148.396 128.54 148.1C128.796 147.796 129.112 147.56 129.488 147.392C129.872 147.216 130.32 147.128 130.832 147.128C131.192 147.128 131.532 147.176 131.852 147.272C132.18 147.36 132.468 147.496 132.716 147.68C132.972 147.864 133.18 148.096 133.34 148.376C133.5 148.656 133.596 148.988 133.628 149.372H132.26ZM134.74 144.932H136.108V148.112H136.132C136.3 147.832 136.548 147.6 136.876 147.416C137.212 147.224 137.584 147.128 137.992 147.128C138.672 147.128 139.208 147.304 139.6 147.656C139.992 148.008 140.188 148.536 140.188 149.24V153.5H138.82V149.6C138.804 149.112 138.7 148.76 138.508 148.544C138.316 148.32 138.016 148.208 137.608 148.208C137.376 148.208 137.168 148.252 136.984 148.34C136.8 148.42 136.644 148.536 136.516 148.688C136.388 148.832 136.288 149.004 136.216 149.204C136.144 149.404 136.108 149.616 136.108 149.84V153.5H134.74V144.932Z" fill="#C5C5C5"/>
<path d="M96.52 110.5V68.5H89.74C89.5 70.1 89 71.44 88.24 72.52C87.48 73.6 86.54 74.48 85.42 75.16C84.34 75.8 83.1 76.26 81.7 76.54C80.34 76.78 78.92 76.88 77.44 76.84V83.26H88V110.5H96.52ZM113.02 85.48V91.48C114.06 91.48 115.14 91.52 116.26 91.6C117.42 91.64 118.48 91.86 119.44 92.26C120.4 92.62 121.18 93.22 121.78 94.06C122.42 94.9 122.74 96.12 122.74 97.72C122.74 99.76 122.08 101.38 120.76 102.58C119.44 103.74 117.82 104.32 115.9 104.32C114.66 104.32 113.58 104.1 112.66 103.66C111.78 103.22 111.04 102.64 110.44 101.92C109.84 101.16 109.38 100.28 109.06 99.28C108.74 98.24 108.56 97.16 108.52 96.04H100.42C100.38 98.48 100.72 100.64 101.44 102.52C102.2 104.4 103.26 106 104.62 107.32C105.98 108.6 107.62 109.58 109.54 110.26C111.5 110.94 113.66 111.28 116.02 111.28C118.06 111.28 120.02 110.98 121.9 110.38C123.78 109.78 125.44 108.9 126.88 107.74C128.32 106.58 129.46 105.14 130.3 103.42C131.18 101.7 131.62 99.74 131.62 97.54C131.62 95.14 130.96 93.08 129.64 91.36C128.32 89.64 126.5 88.52 124.18 88V87.88C126.14 87.32 127.6 86.26 128.56 84.7C129.56 83.14 130.06 81.34 130.06 79.3C130.06 77.42 129.64 75.76 128.8 74.32C127.96 72.88 126.86 71.66 125.5 70.66C124.18 69.66 122.68 68.92 121 68.44C119.32 67.92 117.64 67.66 115.96 67.66C113.8 67.66 111.84 68.02 110.08 68.74C108.32 69.42 106.8 70.4 105.52 71.68C104.28 72.96 103.3 74.5 102.58 76.3C101.9 78.06 101.52 80.02 101.44 82.18H109.54C109.5 80.02 110.02 78.24 111.1 76.84C112.22 75.4 113.86 74.68 116.02 74.68C117.58 74.68 118.96 75.16 120.16 76.12C121.36 77.08 121.96 78.46 121.96 80.26C121.96 81.46 121.66 82.42 121.06 83.14C120.5 83.86 119.76 84.42 118.84 84.82C117.96 85.18 117 85.4 115.96 85.48C114.92 85.56 113.94 85.56 113.02 85.48Z" fill="white"/>
<path d="M70.616 233.452V230.028H72.568C72.856 230.028 73.1333 230.049 73.4 230.092C73.6667 230.135 73.9013 230.22 74.104 230.348C74.3067 230.465 74.4667 230.636 74.584 230.86C74.712 231.084 74.776 231.377 74.776 231.74C74.776 232.103 74.712 232.396 74.584 232.62C74.4667 232.844 74.3067 233.02 74.104 233.148C73.9013 233.265 73.6667 233.345 73.4 233.388C73.1333 233.431 72.856 233.452 72.568 233.452H70.616ZM68.104 228.076V239.5H70.616V235.404H73.256C73.9707 235.404 74.5787 235.303 75.08 235.1C75.5813 234.887 75.9867 234.609 76.296 234.268C76.616 233.927 76.8453 233.537 76.984 233.1C77.1333 232.652 77.208 232.199 77.208 231.74C77.208 231.271 77.1333 230.817 76.984 230.38C76.8453 229.943 76.616 229.553 76.296 229.212C75.9867 228.871 75.5813 228.599 75.08 228.396C74.5787 228.183 73.9707 228.076 73.256 228.076H68.104ZM78.5359 231.228V239.5H80.8079V235.772C80.8079 235.399 80.8452 235.052 80.9199 234.732C80.9945 234.412 81.1172 234.135 81.2879 233.9C81.4692 233.655 81.7039 233.463 81.9919 233.324C82.2799 233.185 82.6319 233.116 83.0479 233.116C83.1865 233.116 83.3305 233.127 83.4799 233.148C83.6292 233.159 83.7572 233.175 83.8639 233.196V231.084C83.6825 231.031 83.5172 231.004 83.3679 231.004C83.0799 231.004 82.8025 231.047 82.5359 231.132C82.2692 231.217 82.0185 231.34 81.7839 231.5C81.5492 231.649 81.3412 231.836 81.1599 232.06C80.9785 232.273 80.8345 232.508 80.7279 232.764H80.6959V231.228H78.5359ZM86.4894 235.372C86.4894 235.041 86.5214 234.716 86.5854 234.396C86.6494 234.076 86.756 233.793 86.9054 233.548C87.0654 233.303 87.2734 233.105 87.5294 232.956C87.7854 232.796 88.1054 232.716 88.4894 232.716C88.8734 232.716 89.1934 232.796 89.4494 232.956C89.716 233.105 89.924 233.303 90.0734 233.548C90.2334 233.793 90.3454 234.076 90.4094 234.396C90.4734 234.716 90.5054 235.041 90.5054 235.372C90.5054 235.703 90.4734 236.028 90.4094 236.348C90.3454 236.657 90.2334 236.94 90.0734 237.196C89.924 237.441 89.716 237.639 89.4494 237.788C89.1934 237.937 88.8734 238.012 88.4894 238.012C88.1054 238.012 87.7854 237.937 87.5294 237.788C87.2734 237.639 87.0654 237.441 86.9054 237.196C86.756 236.94 86.6494 236.657 86.5854 236.348C86.5214 236.028 86.4894 235.703 86.4894 235.372ZM84.2174 235.372C84.2174 236.033 84.3187 236.631 84.5214 237.164C84.724 237.697 85.012 238.156 85.3854 238.54C85.7587 238.913 86.2067 239.201 86.7294 239.404C87.252 239.607 87.8387 239.708 88.4894 239.708C89.14 239.708 89.7267 239.607 90.2494 239.404C90.7827 239.201 91.236 238.913 91.6094 238.54C91.9827 238.156 92.2707 237.697 92.4734 237.164C92.676 236.631 92.7774 236.033 92.7774 235.372C92.7774 234.711 92.676 234.113 92.4734 233.58C92.2707 233.036 91.9827 232.577 91.6094 232.204C91.236 231.82 90.7827 231.527 90.2494 231.324C89.7267 231.111 89.14 231.004 88.4894 231.004C87.8387 231.004 87.252 231.111 86.7294 231.324C86.2067 231.527 85.7587 231.82 85.3854 232.204C85.012 232.577 84.724 233.036 84.5214 233.58C84.3187 234.113 84.2174 234.711 84.2174 235.372ZM96.7346 229.948V228.076H94.4626V229.948H96.7346ZM93.1026 240.46V242.332C93.316 242.375 93.556 242.396 93.8226 242.396C94.3986 242.396 94.8733 242.343 95.2466 242.236C95.62 242.14 95.9133 241.985 96.1266 241.772C96.3506 241.569 96.5053 241.313 96.5906 241.004C96.6866 240.695 96.7346 240.327 96.7346 239.9V231.228H94.4626V239.788C94.4626 240.097 94.372 240.295 94.1906 240.38C94.02 240.476 93.8173 240.524 93.5826 240.524C93.38 240.524 93.22 240.503 93.1026 240.46ZM104.276 234.476H100.58C100.59 234.316 100.622 234.135 100.676 233.932C100.74 233.729 100.841 233.537 100.98 233.356C101.129 233.175 101.321 233.025 101.556 232.908C101.801 232.78 102.105 232.716 102.468 232.716C103.022 232.716 103.433 232.865 103.7 233.164C103.977 233.463 104.169 233.9 104.276 234.476ZM100.58 235.916H106.548C106.59 235.276 106.537 234.663 106.388 234.076C106.238 233.489 105.993 232.967 105.652 232.508C105.321 232.049 104.894 231.687 104.372 231.42C103.849 231.143 103.236 231.004 102.532 231.004C101.902 231.004 101.326 231.116 100.804 231.34C100.292 231.564 99.8491 231.873 99.4758 232.268C99.1024 232.652 98.8144 233.111 98.6118 233.644C98.4091 234.177 98.3078 234.753 98.3078 235.372C98.3078 236.012 98.4038 236.599 98.5958 237.132C98.7984 237.665 99.0811 238.124 99.4438 238.508C99.8064 238.892 100.249 239.191 100.772 239.404C101.294 239.607 101.881 239.708 102.532 239.708C103.47 239.708 104.27 239.495 104.932 239.068C105.593 238.641 106.084 237.932 106.404 236.94H104.404C104.329 237.196 104.126 237.441 103.796 237.676C103.465 237.9 103.07 238.012 102.612 238.012C101.972 238.012 101.481 237.847 101.14 237.516C100.798 237.185 100.612 236.652 100.58 235.916ZM113.527 234.14H115.751C115.719 233.607 115.591 233.148 115.367 232.764C115.143 232.369 114.85 232.044 114.487 231.788C114.135 231.521 113.73 231.324 113.271 231.196C112.823 231.068 112.354 231.004 111.863 231.004C111.191 231.004 110.594 231.116 110.071 231.34C109.549 231.564 109.106 231.879 108.743 232.284C108.381 232.679 108.103 233.153 107.911 233.708C107.73 234.252 107.639 234.844 107.639 235.484C107.639 236.103 107.741 236.673 107.943 237.196C108.146 237.708 108.429 238.151 108.791 238.524C109.154 238.897 109.591 239.191 110.103 239.404C110.626 239.607 111.197 239.708 111.815 239.708C112.914 239.708 113.815 239.42 114.519 238.844C115.223 238.268 115.65 237.431 115.799 236.332H113.607C113.533 236.844 113.346 237.255 113.047 237.564C112.759 237.863 112.343 238.012 111.799 238.012C111.447 238.012 111.149 237.932 110.903 237.772C110.658 237.612 110.461 237.409 110.311 237.164C110.173 236.908 110.071 236.625 110.007 236.316C109.943 236.007 109.911 235.703 109.911 235.404C109.911 235.095 109.943 234.785 110.007 234.476C110.071 234.156 110.178 233.868 110.327 233.612C110.487 233.345 110.69 233.132 110.935 232.972C111.181 232.801 111.485 232.716 111.847 232.716C112.818 232.716 113.378 233.191 113.527 234.14ZM119.963 231.228V228.748H117.691V231.228H116.315V232.748H117.691V237.628C117.691 238.044 117.76 238.38 117.899 238.636C118.037 238.892 118.224 239.089 118.459 239.228C118.704 239.367 118.981 239.457 119.291 239.5C119.611 239.553 119.947 239.58 120.299 239.58C120.523 239.58 120.752 239.575 120.987 239.564C121.221 239.553 121.435 239.532 121.627 239.5V237.74C121.52 237.761 121.408 237.777 121.291 237.788C121.173 237.799 121.051 237.804 120.923 237.804C120.539 237.804 120.283 237.74 120.155 237.612C120.027 237.484 119.963 237.228 119.963 236.844V232.748H121.627V231.228H119.963ZM126.889 232.604H129.065C129.065 232.305 129.092 232.007 129.145 231.708C129.209 231.399 129.31 231.121 129.449 230.876C129.588 230.62 129.769 230.417 129.993 230.268C130.228 230.108 130.51 230.028 130.841 230.028C131.332 230.028 131.732 230.183 132.041 230.492C132.361 230.791 132.521 231.212 132.521 231.756C132.521 232.097 132.441 232.401 132.281 232.668C132.132 232.935 131.94 233.175 131.705 233.388C131.481 233.601 131.23 233.799 130.953 233.98C130.676 234.151 130.414 234.321 130.169 234.492C129.689 234.823 129.23 235.148 128.793 235.468C128.366 235.788 127.993 236.14 127.673 236.524C127.353 236.897 127.097 237.324 126.905 237.804C126.724 238.284 126.633 238.849 126.633 239.5H134.857V237.548H129.561C129.838 237.164 130.158 236.828 130.521 236.54C130.884 236.252 131.257 235.985 131.641 235.74C132.025 235.484 132.404 235.228 132.777 234.972C133.161 234.716 133.502 234.433 133.801 234.124C134.1 233.804 134.34 233.441 134.521 233.036C134.702 232.631 134.793 232.145 134.793 231.58C134.793 231.036 134.686 230.545 134.473 230.108C134.27 229.671 133.993 229.303 133.641 229.004C133.289 228.705 132.878 228.476 132.409 228.316C131.95 228.156 131.465 228.076 130.953 228.076C130.281 228.076 129.684 228.193 129.161 228.428C128.649 228.652 128.222 228.972 127.881 229.388C127.54 229.793 127.284 230.273 127.113 230.828C126.942 231.372 126.868 231.964 126.889 232.604Z" fill="white"/>
</svg>
