<svg width="208" height="255" viewBox="0 0 208 255" fill="none" xmlns="http://www.w3.org/2000/svg">
<circle opacity="0.102052" cx="103.7" cy="104.2" r="100.7" stroke="white" stroke-width="5.7"/>
<path d="M75.2598 7.57216C33.4935 19.8454 3 58.4616 3 104.2C3 159.815 48.0849 204.9 103.7 204.9C159.315 204.9 204.4 159.815 204.4 104.2C204.4 48.5849 159.315 3.5 103.7 3.5" stroke="#32DBBB" stroke-width="5.7" stroke-linecap="round"/>
<circle cx="75" cy="7.55" r="3" fill="white"/>
<path d="M77.9469 131.34C77.9469 131.681 77.9149 132.012 77.8509 132.332C77.7869 132.652 77.6803 132.94 77.5309 133.196C77.3816 133.441 77.1789 133.639 76.9229 133.788C76.6776 133.937 76.3683 134.012 75.9949 134.012C75.6429 134.012 75.3389 133.937 75.0829 133.788C74.8376 133.628 74.6296 133.425 74.4589 133.18C74.2989 132.924 74.1816 132.636 74.1069 132.316C74.0323 131.996 73.9949 131.676 73.9949 131.356C73.9949 131.015 74.0269 130.689 74.0909 130.38C74.1656 130.06 74.2776 129.777 74.4269 129.532C74.5869 129.287 74.7949 129.089 75.0509 128.94C75.3069 128.791 75.6216 128.716 75.9949 128.716C76.3683 128.716 76.6776 128.791 76.9229 128.94C77.1683 129.089 77.3656 129.287 77.5149 129.532C77.6749 129.767 77.7869 130.044 77.8509 130.364C77.9149 130.673 77.9469 130.999 77.9469 131.34ZM77.9789 134.444V135.5H80.1389V124.076H77.8669V128.236H77.8349C77.5789 127.831 77.2269 127.527 76.7789 127.324C76.3416 127.111 75.8776 127.004 75.3869 127.004C74.7789 127.004 74.2456 127.127 73.7869 127.372C73.3283 127.607 72.9443 127.921 72.6349 128.316C72.3363 128.711 72.1069 129.169 71.9469 129.692C71.7976 130.204 71.7229 130.737 71.7229 131.292C71.7229 131.868 71.7976 132.423 71.9469 132.956C72.1069 133.489 72.3363 133.964 72.6349 134.38C72.9443 134.785 73.3336 135.111 73.8029 135.356C74.2723 135.591 74.8163 135.708 75.4349 135.708C75.9789 135.708 76.4643 135.612 76.8909 135.42C77.3283 135.217 77.6803 134.892 77.9469 134.444H77.9789ZM81.7602 129.772C81.7922 129.239 81.9255 128.796 82.1602 128.444C82.3949 128.092 82.6935 127.809 83.0562 127.596C83.4189 127.383 83.8242 127.233 84.2722 127.148C84.7309 127.052 85.1895 127.004 85.6482 127.004C86.0642 127.004 86.4855 127.036 86.9122 127.1C87.3389 127.153 87.7282 127.265 88.0802 127.436C88.4322 127.607 88.7202 127.847 88.9442 128.156C89.1682 128.455 89.2802 128.855 89.2802 129.356V133.66C89.2802 134.033 89.3015 134.391 89.3442 134.732C89.3869 135.073 89.4615 135.329 89.5682 135.5H87.2642C87.2215 135.372 87.1842 135.244 87.1522 135.116C87.1309 134.977 87.1149 134.839 87.1042 134.7C86.7415 135.073 86.3149 135.335 85.8242 135.484C85.3335 135.633 84.8322 135.708 84.3202 135.708C83.9255 135.708 83.5575 135.66 83.2162 135.564C82.8749 135.468 82.5762 135.319 82.3202 135.116C82.0642 134.913 81.8615 134.657 81.7122 134.348C81.5735 134.039 81.5042 133.671 81.5042 133.244C81.5042 132.775 81.5842 132.391 81.7442 132.092C81.9149 131.783 82.1282 131.537 82.3842 131.356C82.6509 131.175 82.9495 131.041 83.2802 130.956C83.6215 130.86 83.9629 130.785 84.3042 130.732C84.6455 130.679 84.9815 130.636 85.3122 130.604C85.6429 130.572 85.9362 130.524 86.1922 130.46C86.4482 130.396 86.6509 130.305 86.8002 130.188C86.9495 130.06 87.0189 129.879 87.0082 129.644C87.0082 129.399 86.9655 129.207 86.8802 129.068C86.8055 128.919 86.6989 128.807 86.5602 128.732C86.4322 128.647 86.2775 128.593 86.0962 128.572C85.9255 128.54 85.7389 128.524 85.5362 128.524C85.0882 128.524 84.7362 128.62 84.4802 128.812C84.2242 129.004 84.0749 129.324 84.0322 129.772H81.7602ZM87.0082 131.452C86.9122 131.537 86.7895 131.607 86.6402 131.66C86.5015 131.703 86.3469 131.74 86.1762 131.772C86.0162 131.804 85.8455 131.831 85.6642 131.852C85.4829 131.873 85.3015 131.9 85.1202 131.932C84.9495 131.964 84.7789 132.007 84.6082 132.06C84.4482 132.113 84.3042 132.188 84.1762 132.284C84.0589 132.369 83.9629 132.481 83.8882 132.62C83.8135 132.759 83.7762 132.935 83.7762 133.148C83.7762 133.351 83.8135 133.521 83.8882 133.66C83.9629 133.799 84.0642 133.911 84.1922 133.996C84.3202 134.071 84.4695 134.124 84.6402 134.156C84.8109 134.188 84.9869 134.204 85.1682 134.204C85.6162 134.204 85.9629 134.129 86.2082 133.98C86.4535 133.831 86.6349 133.655 86.7522 133.452C86.8695 133.239 86.9389 133.025 86.9602 132.812C86.9922 132.599 87.0082 132.428 87.0082 132.3V131.452ZM95.1237 136.524L98.5797 127.228H96.2277L94.4197 132.892H94.3877L92.5157 127.228H90.0997L92.9957 134.988C93.0597 135.148 93.0917 135.319 93.0917 135.5C93.0917 135.745 93.017 135.969 92.8677 136.172C92.729 136.375 92.5104 136.492 92.2117 136.524C91.9877 136.535 91.7637 136.529 91.5397 136.508C91.3157 136.487 91.097 136.465 90.8837 136.444V138.316C91.1184 138.337 91.3477 138.353 91.5717 138.364C91.8064 138.385 92.041 138.396 92.2757 138.396C93.0544 138.396 93.6624 138.252 94.0997 137.964C94.537 137.676 94.8784 137.196 95.1237 136.524ZM101.101 132.812H98.9406C98.9619 133.367 99.0846 133.831 99.3086 134.204C99.5432 134.567 99.8366 134.86 100.189 135.084C100.551 135.308 100.962 135.468 101.421 135.564C101.879 135.66 102.349 135.708 102.829 135.708C103.298 135.708 103.757 135.66 104.205 135.564C104.663 135.479 105.069 135.324 105.421 135.1C105.773 134.876 106.055 134.583 106.269 134.22C106.493 133.847 106.605 133.388 106.605 132.844C106.605 132.46 106.53 132.14 106.381 131.884C106.231 131.617 106.034 131.399 105.789 131.228C105.543 131.047 105.261 130.903 104.941 130.796C104.631 130.689 104.311 130.599 103.981 130.524C103.661 130.449 103.346 130.38 103.037 130.316C102.727 130.252 102.45 130.183 102.205 130.108C101.97 130.023 101.778 129.916 101.629 129.788C101.479 129.66 101.405 129.495 101.405 129.292C101.405 129.121 101.447 128.988 101.533 128.892C101.618 128.785 101.719 128.705 101.837 128.652C101.965 128.599 102.103 128.567 102.253 128.556C102.402 128.535 102.541 128.524 102.669 128.524C103.074 128.524 103.426 128.604 103.725 128.764C104.023 128.913 104.189 129.207 104.221 129.644H106.381C106.338 129.132 106.205 128.711 105.981 128.38C105.767 128.039 105.495 127.767 105.165 127.564C104.834 127.361 104.455 127.217 104.029 127.132C103.613 127.047 103.181 127.004 102.733 127.004C102.285 127.004 101.847 127.047 101.421 127.132C100.994 127.207 100.61 127.345 100.269 127.548C99.9272 127.74 99.6499 128.007 99.4366 128.348C99.2339 128.689 99.1326 129.127 99.1326 129.66C99.1326 130.023 99.2072 130.332 99.3566 130.588C99.5059 130.833 99.7032 131.041 99.9486 131.212C100.194 131.372 100.471 131.505 100.781 131.612C101.101 131.708 101.426 131.793 101.757 131.868C102.567 132.039 103.197 132.209 103.645 132.38C104.103 132.551 104.333 132.807 104.333 133.148C104.333 133.351 104.285 133.521 104.189 133.66C104.093 133.788 103.97 133.895 103.821 133.98C103.682 134.055 103.522 134.113 103.341 134.156C103.17 134.188 103.005 134.204 102.845 134.204C102.621 134.204 102.402 134.177 102.189 134.124C101.986 134.071 101.805 133.991 101.645 133.884C101.485 133.767 101.351 133.623 101.245 133.452C101.149 133.271 101.101 133.057 101.101 132.812ZM112.451 124.076V135.5H114.723V124.076H112.451ZM122.08 130.476H118.384C118.395 130.316 118.427 130.135 118.48 129.932C118.544 129.729 118.646 129.537 118.784 129.356C118.934 129.175 119.126 129.025 119.36 128.908C119.606 128.78 119.91 128.716 120.272 128.716C120.827 128.716 121.238 128.865 121.504 129.164C121.782 129.463 121.974 129.9 122.08 130.476ZM118.384 131.916H124.352C124.395 131.276 124.342 130.663 124.192 130.076C124.043 129.489 123.798 128.967 123.456 128.508C123.126 128.049 122.699 127.687 122.176 127.42C121.654 127.143 121.04 127.004 120.336 127.004C119.707 127.004 119.131 127.116 118.608 127.34C118.096 127.564 117.654 127.873 117.28 128.268C116.907 128.652 116.619 129.111 116.416 129.644C116.214 130.177 116.112 130.753 116.112 131.372C116.112 132.012 116.208 132.599 116.4 133.132C116.603 133.665 116.886 134.124 117.248 134.508C117.611 134.892 118.054 135.191 118.576 135.404C119.099 135.607 119.686 135.708 120.336 135.708C121.275 135.708 122.075 135.495 122.736 135.068C123.398 134.641 123.888 133.932 124.208 132.94H122.208C122.134 133.196 121.931 133.441 121.6 133.676C121.27 133.9 120.875 134.012 120.416 134.012C119.776 134.012 119.286 133.847 118.944 133.516C118.603 133.185 118.416 132.652 118.384 131.916ZM126.196 128.748V135.5H128.468V128.748H130.036V127.228H128.468V126.732C128.468 126.391 128.532 126.151 128.66 126.012C128.799 125.863 129.023 125.788 129.332 125.788C129.62 125.788 129.897 125.804 130.164 125.836V124.14C129.972 124.129 129.775 124.119 129.572 124.108C129.369 124.087 129.167 124.076 128.964 124.076C128.036 124.076 127.343 124.311 126.884 124.78C126.425 125.249 126.196 125.852 126.196 126.588V127.228H124.836V128.748H126.196ZM133.908 127.228V124.748H131.636V127.228H130.26V128.748H131.636V133.628C131.636 134.044 131.705 134.38 131.844 134.636C131.983 134.892 132.169 135.089 132.404 135.228C132.649 135.367 132.927 135.457 133.236 135.5C133.556 135.553 133.892 135.58 134.244 135.58C134.468 135.58 134.697 135.575 134.932 135.564C135.167 135.553 135.38 135.532 135.572 135.5V133.74C135.465 133.761 135.353 133.777 135.236 133.788C135.119 133.799 134.996 133.804 134.868 133.804C134.484 133.804 134.228 133.74 134.1 133.612C133.972 133.484 133.908 133.228 133.908 132.844V128.748H135.572V127.228H133.908Z" fill="white"/>
<path d="M65.8458 144.932H67.2138V148.1H67.2378C67.3338 147.948 67.4498 147.812 67.5858 147.692C67.7218 147.572 67.8698 147.472 68.0298 147.392C68.1978 147.304 68.3698 147.24 68.5458 147.2C68.7298 147.152 68.9098 147.128 69.0858 147.128C69.5738 147.128 69.9978 147.216 70.3578 147.392C70.7258 147.56 71.0298 147.796 71.2698 148.1C71.5098 148.396 71.6898 148.744 71.8098 149.144C71.9298 149.544 71.9898 149.972 71.9898 150.428C71.9898 150.844 71.9338 151.248 71.8218 151.64C71.7178 152.032 71.5538 152.38 71.3298 152.684C71.1138 152.98 70.8378 153.22 70.5018 153.404C70.1658 153.58 69.7698 153.668 69.3138 153.668C69.1058 153.668 68.8938 153.652 68.6778 153.62C68.4698 153.596 68.2698 153.544 68.0778 153.464C67.8858 153.384 67.7098 153.28 67.5498 153.152C67.3978 153.024 67.2698 152.856 67.1658 152.648H67.1418V153.5H65.8458V144.932ZM70.6218 150.404C70.6218 150.124 70.5858 149.852 70.5138 149.588C70.4418 149.324 70.3338 149.092 70.1898 148.892C70.0458 148.684 69.8658 148.52 69.6498 148.4C69.4338 148.272 69.1858 148.208 68.9058 148.208C68.3298 148.208 67.8938 148.408 67.5978 148.808C67.3098 149.208 67.1658 149.74 67.1658 150.404C67.1658 150.716 67.2018 151.008 67.2738 151.28C67.3538 151.544 67.4698 151.772 67.6218 151.964C67.7738 152.156 67.9538 152.308 68.1618 152.42C68.3778 152.532 68.6258 152.588 68.9058 152.588C69.2178 152.588 69.4818 152.524 69.6978 152.396C69.9138 152.268 70.0898 152.104 70.2258 151.904C70.3698 151.696 70.4698 151.464 70.5258 151.208C70.5898 150.944 70.6218 150.676 70.6218 150.404ZM77.4058 149.852C77.3898 149.636 77.3418 149.428 77.2618 149.228C77.1898 149.028 77.0858 148.856 76.9498 148.712C76.8218 148.56 76.6618 148.44 76.4698 148.352C76.2858 148.256 76.0778 148.208 75.8458 148.208C75.6058 148.208 75.3858 148.252 75.1858 148.34C74.9938 148.42 74.8258 148.536 74.6818 148.688C74.5458 148.832 74.4338 149.004 74.3458 149.204C74.2658 149.404 74.2218 149.62 74.2138 149.852H77.4058ZM74.2138 150.752C74.2138 150.992 74.2458 151.224 74.3098 151.448C74.3818 151.672 74.4858 151.868 74.6218 152.036C74.7578 152.204 74.9298 152.34 75.1378 152.444C75.3458 152.54 75.5938 152.588 75.8818 152.588C76.2818 152.588 76.6018 152.504 76.8418 152.336C77.0898 152.16 77.2738 151.9 77.3938 151.556H78.6898C78.6178 151.892 78.4938 152.192 78.3178 152.456C78.1418 152.72 77.9298 152.944 77.6818 153.128C77.4338 153.304 77.1538 153.436 76.8418 153.524C76.5378 153.62 76.2178 153.668 75.8818 153.668C75.3938 153.668 74.9618 153.588 74.5858 153.428C74.2098 153.268 73.8898 153.044 73.6258 152.756C73.3698 152.468 73.1738 152.124 73.0378 151.724C72.9098 151.324 72.8458 150.884 72.8458 150.404C72.8458 149.964 72.9138 149.548 73.0498 149.156C73.1938 148.756 73.3938 148.408 73.6498 148.112C73.9138 147.808 74.2298 147.568 74.5978 147.392C74.9658 147.216 75.3818 147.128 75.8458 147.128C76.3338 147.128 76.7698 147.232 77.1538 147.44C77.5458 147.64 77.8698 147.908 78.1258 148.244C78.3818 148.58 78.5658 148.968 78.6778 149.408C78.7978 149.84 78.8298 150.288 78.7738 150.752H74.2138ZM79.2018 147.296H80.2218V146.78C80.2218 146.388 80.2698 146.072 80.3658 145.832C80.4618 145.584 80.5898 145.396 80.7498 145.268C80.9098 145.132 81.0898 145.044 81.2898 145.004C81.4978 144.956 81.7138 144.932 81.9378 144.932C82.3778 144.932 82.6978 144.96 82.8978 145.016V146.084C82.8098 146.06 82.7138 146.044 82.6098 146.036C82.5138 146.02 82.3978 146.012 82.2617 146.012C82.0778 146.012 81.9178 146.056 81.7818 146.144C81.6538 146.232 81.5898 146.404 81.5898 146.66V147.296H82.7538V148.316H81.5898V153.5H80.2218V148.316H79.2018V147.296ZM86.4429 153.668C85.9469 153.668 85.5029 153.588 85.1109 153.428C84.7269 153.26 84.3989 153.032 84.1269 152.744C83.8629 152.456 83.6589 152.112 83.5149 151.712C83.3789 151.312 83.3109 150.872 83.3109 150.392C83.3109 149.92 83.3789 149.484 83.5149 149.084C83.6589 148.684 83.8629 148.34 84.1269 148.052C84.3989 147.764 84.7269 147.54 85.1109 147.38C85.5029 147.212 85.9469 147.128 86.4429 147.128C86.9389 147.128 87.3789 147.212 87.7629 147.38C88.1549 147.54 88.4829 147.764 88.7469 148.052C89.0189 148.34 89.2229 148.684 89.3589 149.084C89.5029 149.484 89.5749 149.92 89.5749 150.392C89.5749 150.872 89.5029 151.312 89.3589 151.712C89.2229 152.112 89.0189 152.456 88.7469 152.744C88.4829 153.032 88.1549 153.26 87.7629 153.428C87.3789 153.588 86.9389 153.668 86.4429 153.668ZM86.4429 152.588C86.7469 152.588 87.0109 152.524 87.2349 152.396C87.4589 152.268 87.6429 152.1 87.7869 151.892C87.9309 151.684 88.0349 151.452 88.0989 151.196C88.1709 150.932 88.2069 150.664 88.2069 150.392C88.2069 150.128 88.1709 149.864 88.0989 149.6C88.0349 149.336 87.9309 149.104 87.7869 148.904C87.6429 148.696 87.4589 148.528 87.2349 148.4C87.0109 148.272 86.7469 148.208 86.4429 148.208C86.1389 148.208 85.8749 148.272 85.6509 148.4C85.4269 148.528 85.2429 148.696 85.0989 148.904C84.9549 149.104 84.8469 149.336 84.7749 149.6C84.7109 149.864 84.6789 150.128 84.6789 150.392C84.6789 150.664 84.7109 150.932 84.7749 151.196C84.8469 151.452 84.9549 151.684 85.0989 151.892C85.2429 152.1 85.4269 152.268 85.6509 152.396C85.8749 152.524 86.1389 152.588 86.4429 152.588ZM90.7122 147.296H91.9962V148.496H92.0202C92.0602 148.328 92.1362 148.164 92.2482 148.004C92.3682 147.844 92.5082 147.7 92.6682 147.572C92.8362 147.436 93.0202 147.328 93.2202 147.248C93.4202 147.168 93.6242 147.128 93.8322 147.128C93.9922 147.128 94.1002 147.132 94.1562 147.14C94.2202 147.148 94.2842 147.156 94.3482 147.164V148.484C94.2522 148.468 94.1522 148.456 94.0482 148.448C93.9522 148.432 93.8562 148.424 93.7602 148.424C93.5282 148.424 93.3082 148.472 93.1002 148.568C92.9002 148.656 92.7242 148.792 92.5722 148.976C92.4202 149.152 92.3002 149.372 92.2122 149.636C92.1242 149.9 92.0802 150.204 92.0802 150.548V153.5H90.7122V147.296ZM98.98 149.852C98.964 149.636 98.916 149.428 98.836 149.228C98.764 149.028 98.66 148.856 98.524 148.712C98.396 148.56 98.236 148.44 98.044 148.352C97.86 148.256 97.652 148.208 97.42 148.208C97.18 148.208 96.96 148.252 96.76 148.34C96.568 148.42 96.4 148.536 96.256 148.688C96.12 148.832 96.008 149.004 95.92 149.204C95.84 149.404 95.796 149.62 95.788 149.852H98.98ZM95.788 150.752C95.788 150.992 95.82 151.224 95.884 151.448C95.956 151.672 96.06 151.868 96.196 152.036C96.332 152.204 96.504 152.34 96.712 152.444C96.92 152.54 97.168 152.588 97.456 152.588C97.856 152.588 98.176 152.504 98.416 152.336C98.664 152.16 98.848 151.9 98.968 151.556H100.264C100.192 151.892 100.068 152.192 99.892 152.456C99.716 152.72 99.504 152.944 99.256 153.128C99.008 153.304 98.728 153.436 98.416 153.524C98.112 153.62 97.792 153.668 97.456 153.668C96.968 153.668 96.536 153.588 96.16 153.428C95.784 153.268 95.464 153.044 95.2 152.756C94.944 152.468 94.748 152.124 94.612 151.724C94.484 151.324 94.42 150.884 94.42 150.404C94.42 149.964 94.488 149.548 94.624 149.156C94.768 148.756 94.968 148.408 95.224 148.112C95.488 147.808 95.804 147.568 96.172 147.392C96.54 147.216 96.956 147.128 97.42 147.128C97.908 147.128 98.344 147.232 98.728 147.44C99.12 147.64 99.444 147.908 99.7 148.244C99.956 148.58 100.14 148.968 100.252 149.408C100.372 149.84 100.404 150.288 100.348 150.752H95.788ZM104.764 144.932H106.132V153.5H104.764V144.932ZM112.818 152.12C112.818 152.288 112.838 152.408 112.878 152.48C112.926 152.552 113.014 152.588 113.142 152.588C113.182 152.588 113.23 152.588 113.286 152.588C113.342 152.588 113.406 152.58 113.478 152.564V153.512C113.43 153.528 113.366 153.544 113.286 153.56C113.214 153.584 113.138 153.604 113.058 153.62C112.978 153.636 112.898 153.648 112.818 153.656C112.738 153.664 112.67 153.668 112.614 153.668C112.334 153.668 112.102 153.612 111.918 153.5C111.734 153.388 111.614 153.192 111.558 152.912C111.286 153.176 110.95 153.368 110.55 153.488C110.158 153.608 109.778 153.668 109.41 153.668C109.13 153.668 108.862 153.628 108.606 153.548C108.35 153.476 108.122 153.368 107.922 153.224C107.73 153.072 107.574 152.884 107.454 152.66C107.342 152.428 107.286 152.16 107.286 151.856C107.286 151.472 107.354 151.16 107.49 150.92C107.634 150.68 107.818 150.492 108.042 150.356C108.274 150.22 108.53 150.124 108.81 150.068C109.098 150.004 109.386 149.956 109.674 149.924C109.922 149.876 110.158 149.844 110.382 149.828C110.606 149.804 110.802 149.768 110.97 149.72C111.146 149.672 111.282 149.6 111.378 149.504C111.482 149.4 111.534 149.248 111.534 149.048C111.534 148.872 111.49 148.728 111.402 148.616C111.322 148.504 111.218 148.42 111.09 148.364C110.97 148.3 110.834 148.26 110.682 148.244C110.53 148.22 110.386 148.208 110.25 148.208C109.866 148.208 109.55 148.288 109.302 148.448C109.054 148.608 108.914 148.856 108.882 149.192H107.514C107.538 148.792 107.634 148.46 107.802 148.196C107.97 147.932 108.182 147.72 108.438 147.56C108.702 147.4 108.998 147.288 109.326 147.224C109.654 147.16 109.99 147.128 110.334 147.128C110.638 147.128 110.938 147.16 111.234 147.224C111.53 147.288 111.794 147.392 112.026 147.536C112.266 147.68 112.458 147.868 112.602 148.1C112.746 148.324 112.818 148.6 112.818 148.928V152.12ZM111.45 150.392C111.242 150.528 110.986 150.612 110.682 150.644C110.378 150.668 110.074 150.708 109.77 150.764C109.626 150.788 109.486 150.824 109.35 150.872C109.214 150.912 109.094 150.972 108.99 151.052C108.886 151.124 108.802 151.224 108.738 151.352C108.682 151.472 108.654 151.62 108.654 151.796C108.654 151.948 108.698 152.076 108.786 152.18C108.874 152.284 108.978 152.368 109.098 152.432C109.226 152.488 109.362 152.528 109.506 152.552C109.658 152.576 109.794 152.588 109.914 152.588C110.066 152.588 110.23 152.568 110.406 152.528C110.582 152.488 110.746 152.42 110.898 152.324C111.058 152.228 111.19 152.108 111.294 151.964C111.398 151.812 111.45 151.628 111.45 151.412V150.392ZM119.738 153.5H118.394V152.636H118.37C118.202 152.948 117.95 153.2 117.614 153.392C117.286 153.576 116.95 153.668 116.606 153.668C115.79 153.668 115.198 153.468 114.83 153.068C114.47 152.66 114.29 152.048 114.29 151.232V147.296H115.658V151.1C115.658 151.644 115.762 152.028 115.97 152.252C116.178 152.476 116.47 152.588 116.846 152.588C117.134 152.588 117.374 152.544 117.566 152.456C117.758 152.368 117.914 152.252 118.034 152.108C118.154 151.956 118.238 151.776 118.286 151.568C118.342 151.36 118.37 151.136 118.37 150.896V147.296H119.738V153.5ZM121.181 147.296H122.477V148.208L122.501 148.232C122.709 147.888 122.981 147.62 123.317 147.428C123.653 147.228 124.025 147.128 124.433 147.128C125.113 147.128 125.649 147.304 126.041 147.656C126.433 148.008 126.629 148.536 126.629 149.24V153.5H125.261V149.6C125.245 149.112 125.141 148.76 124.949 148.544C124.757 148.32 124.457 148.208 124.049 148.208C123.817 148.208 123.609 148.252 123.425 148.34C123.241 148.42 123.085 148.536 122.957 148.688C122.829 148.832 122.729 149.004 122.657 149.204C122.585 149.404 122.549 149.616 122.549 149.84V153.5H121.181V147.296ZM132.26 149.372C132.204 148.988 132.048 148.7 131.792 148.508C131.544 148.308 131.228 148.208 130.844 148.208C130.668 148.208 130.48 148.24 130.28 148.304C130.08 148.36 129.896 148.472 129.728 148.64C129.56 148.8 129.42 149.028 129.308 149.324C129.196 149.612 129.14 149.992 129.14 150.464C129.14 150.72 129.168 150.976 129.224 151.232C129.288 151.488 129.384 151.716 129.512 151.916C129.648 152.116 129.82 152.28 130.028 152.408C130.236 152.528 130.488 152.588 130.784 152.588C131.184 152.588 131.512 152.464 131.768 152.216C132.032 151.968 132.196 151.62 132.26 151.172H133.628C133.5 151.98 133.192 152.6 132.704 153.032C132.224 153.456 131.584 153.668 130.784 153.668C130.296 153.668 129.864 153.588 129.488 153.428C129.12 153.26 128.808 153.036 128.552 152.756C128.296 152.468 128.1 152.128 127.964 151.736C127.836 151.344 127.772 150.92 127.772 150.464C127.772 150 127.836 149.564 127.964 149.156C128.092 148.748 128.284 148.396 128.54 148.1C128.796 147.796 129.112 147.56 129.488 147.392C129.872 147.216 130.32 147.128 130.832 147.128C131.192 147.128 131.532 147.176 131.852 147.272C132.18 147.36 132.468 147.496 132.716 147.68C132.972 147.864 133.18 148.096 133.34 148.376C133.5 148.656 133.596 148.988 133.628 149.372H132.26ZM134.74 144.932H136.108V148.112H136.132C136.3 147.832 136.548 147.6 136.876 147.416C137.212 147.224 137.584 147.128 137.992 147.128C138.672 147.128 139.208 147.304 139.6 147.656C139.992 148.008 140.188 148.536 140.188 149.24V153.5H138.82V149.6C138.804 149.112 138.7 148.76 138.508 148.544C138.316 148.32 138.016 148.208 137.608 148.208C137.376 148.208 137.168 148.252 136.984 148.34C136.8 148.42 136.644 148.536 136.516 148.688C136.388 148.832 136.288 149.004 136.216 149.204C136.144 149.404 136.108 149.616 136.108 149.84V153.5H134.74V144.932Z" fill="#C5C5C5"/>
<path d="M103.68 85.48V91.48C104.72 91.48 105.8 91.52 106.92 91.6C108.08 91.64 109.14 91.86 110.1 92.26C111.06 92.62 111.84 93.22 112.44 94.06C113.08 94.9 113.4 96.12 113.4 97.72C113.4 99.76 112.74 101.38 111.42 102.58C110.1 103.74 108.48 104.32 106.56 104.32C105.32 104.32 104.24 104.1 103.32 103.66C102.44 103.22 101.7 102.64 101.1 101.92C100.5 101.16 100.04 100.28 99.72 99.28C99.4 98.24 99.22 97.16 99.18 96.04H91.08C91.04 98.48 91.38 100.64 92.1 102.52C92.86 104.4 93.92 106 95.28 107.32C96.64 108.6 98.28 109.58 100.2 110.26C102.16 110.94 104.32 111.28 106.68 111.28C108.72 111.28 110.68 110.98 112.56 110.38C114.44 109.78 116.1 108.9 117.54 107.74C118.98 106.58 120.12 105.14 120.96 103.42C121.84 101.7 122.28 99.74 122.28 97.54C122.28 95.14 121.62 93.08 120.3 91.36C118.98 89.64 117.16 88.52 114.84 88V87.88C116.8 87.32 118.26 86.26 119.22 84.7C120.22 83.14 120.72 81.34 120.72 79.3C120.72 77.42 120.3 75.76 119.46 74.32C118.62 72.88 117.52 71.66 116.16 70.66C114.84 69.66 113.34 68.92 111.66 68.44C109.98 67.92 108.3 67.66 106.62 67.66C104.46 67.66 102.5 68.02 100.74 68.74C98.98 69.42 97.46 70.4 96.18 71.68C94.94 72.96 93.96 74.5 93.24 76.3C92.56 78.06 92.18 80.02 92.1 82.18H100.2C100.16 80.02 100.68 78.24 101.76 76.84C102.88 75.4 104.52 74.68 106.68 74.68C108.24 74.68 109.62 75.16 110.82 76.12C112.02 77.08 112.62 78.46 112.62 80.26C112.62 81.46 112.32 82.42 111.72 83.14C111.16 83.86 110.42 84.42 109.5 84.82C108.62 85.18 107.66 85.4 106.62 85.48C105.58 85.56 104.6 85.56 103.68 85.48Z" fill="white"/>
<path d="M73.616 232.952V229.528H75.568C75.856 229.528 76.1333 229.549 76.4 229.592C76.6667 229.635 76.9013 229.72 77.104 229.848C77.3067 229.965 77.4667 230.136 77.584 230.36C77.712 230.584 77.776 230.877 77.776 231.24C77.776 231.603 77.712 231.896 77.584 232.12C77.4667 232.344 77.3067 232.52 77.104 232.648C76.9013 232.765 76.6667 232.845 76.4 232.888C76.1333 232.931 75.856 232.952 75.568 232.952H73.616ZM71.104 227.576V239H73.616V234.904H76.256C76.9707 234.904 77.5787 234.803 78.08 234.6C78.5813 234.387 78.9867 234.109 79.296 233.768C79.616 233.427 79.8453 233.037 79.984 232.6C80.1333 232.152 80.208 231.699 80.208 231.24C80.208 230.771 80.1333 230.317 79.984 229.88C79.8453 229.443 79.616 229.053 79.296 228.712C78.9867 228.371 78.5813 228.099 78.08 227.896C77.5787 227.683 76.9707 227.576 76.256 227.576H71.104ZM81.5359 230.728V239H83.8079V235.272C83.8079 234.899 83.8452 234.552 83.9199 234.232C83.9945 233.912 84.1172 233.635 84.2879 233.4C84.4692 233.155 84.7039 232.963 84.9919 232.824C85.2799 232.685 85.6319 232.616 86.0479 232.616C86.1865 232.616 86.3305 232.627 86.4799 232.648C86.6292 232.659 86.7572 232.675 86.8639 232.696V230.584C86.6825 230.531 86.5172 230.504 86.3679 230.504C86.0799 230.504 85.8025 230.547 85.5359 230.632C85.2692 230.717 85.0185 230.84 84.7839 231C84.5492 231.149 84.3412 231.336 84.1599 231.56C83.9785 231.773 83.8345 232.008 83.7279 232.264H83.6959V230.728H81.5359ZM89.4894 234.872C89.4894 234.541 89.5214 234.216 89.5854 233.896C89.6494 233.576 89.756 233.293 89.9054 233.048C90.0654 232.803 90.2734 232.605 90.5294 232.456C90.7854 232.296 91.1054 232.216 91.4894 232.216C91.8734 232.216 92.1934 232.296 92.4494 232.456C92.716 232.605 92.924 232.803 93.0734 233.048C93.2334 233.293 93.3454 233.576 93.4094 233.896C93.4734 234.216 93.5054 234.541 93.5054 234.872C93.5054 235.203 93.4734 235.528 93.4094 235.848C93.3454 236.157 93.2334 236.44 93.0734 236.696C92.924 236.941 92.716 237.139 92.4494 237.288C92.1934 237.437 91.8734 237.512 91.4894 237.512C91.1054 237.512 90.7854 237.437 90.5294 237.288C90.2734 237.139 90.0654 236.941 89.9054 236.696C89.756 236.44 89.6494 236.157 89.5854 235.848C89.5214 235.528 89.4894 235.203 89.4894 234.872ZM87.2174 234.872C87.2174 235.533 87.3187 236.131 87.5214 236.664C87.724 237.197 88.012 237.656 88.3854 238.04C88.7587 238.413 89.2067 238.701 89.7294 238.904C90.252 239.107 90.8387 239.208 91.4894 239.208C92.14 239.208 92.7267 239.107 93.2494 238.904C93.7827 238.701 94.236 238.413 94.6094 238.04C94.9827 237.656 95.2707 237.197 95.4734 236.664C95.676 236.131 95.7774 235.533 95.7774 234.872C95.7774 234.211 95.676 233.613 95.4734 233.08C95.2707 232.536 94.9827 232.077 94.6094 231.704C94.236 231.32 93.7827 231.027 93.2494 230.824C92.7267 230.611 92.14 230.504 91.4894 230.504C90.8387 230.504 90.252 230.611 89.7294 230.824C89.2067 231.027 88.7587 231.32 88.3854 231.704C88.012 232.077 87.724 232.536 87.5214 233.08C87.3187 233.613 87.2174 234.211 87.2174 234.872ZM99.7346 229.448V227.576H97.4626V229.448H99.7346ZM96.1026 239.96V241.832C96.316 241.875 96.556 241.896 96.8226 241.896C97.3986 241.896 97.8733 241.843 98.2466 241.736C98.62 241.64 98.9133 241.485 99.1266 241.272C99.3506 241.069 99.5053 240.813 99.5906 240.504C99.6866 240.195 99.7346 239.827 99.7346 239.4V230.728H97.4626V239.288C97.4626 239.597 97.372 239.795 97.1906 239.88C97.02 239.976 96.8173 240.024 96.5826 240.024C96.38 240.024 96.22 240.003 96.1026 239.96ZM107.276 233.976H103.58C103.59 233.816 103.622 233.635 103.676 233.432C103.74 233.229 103.841 233.037 103.98 232.856C104.129 232.675 104.321 232.525 104.556 232.408C104.801 232.28 105.105 232.216 105.468 232.216C106.022 232.216 106.433 232.365 106.7 232.664C106.977 232.963 107.169 233.4 107.276 233.976ZM103.58 235.416H109.548C109.59 234.776 109.537 234.163 109.388 233.576C109.238 232.989 108.993 232.467 108.652 232.008C108.321 231.549 107.894 231.187 107.372 230.92C106.849 230.643 106.236 230.504 105.532 230.504C104.902 230.504 104.326 230.616 103.804 230.84C103.292 231.064 102.849 231.373 102.476 231.768C102.102 232.152 101.814 232.611 101.612 233.144C101.409 233.677 101.308 234.253 101.308 234.872C101.308 235.512 101.404 236.099 101.596 236.632C101.798 237.165 102.081 237.624 102.444 238.008C102.806 238.392 103.249 238.691 103.772 238.904C104.294 239.107 104.881 239.208 105.532 239.208C106.47 239.208 107.27 238.995 107.932 238.568C108.593 238.141 109.084 237.432 109.404 236.44H107.404C107.329 236.696 107.126 236.941 106.796 237.176C106.465 237.4 106.07 237.512 105.612 237.512C104.972 237.512 104.481 237.347 104.14 237.016C103.798 236.685 103.612 236.152 103.58 235.416ZM116.527 233.64H118.751C118.719 233.107 118.591 232.648 118.367 232.264C118.143 231.869 117.85 231.544 117.487 231.288C117.135 231.021 116.73 230.824 116.271 230.696C115.823 230.568 115.354 230.504 114.863 230.504C114.191 230.504 113.594 230.616 113.071 230.84C112.549 231.064 112.106 231.379 111.743 231.784C111.381 232.179 111.103 232.653 110.911 233.208C110.73 233.752 110.639 234.344 110.639 234.984C110.639 235.603 110.741 236.173 110.943 236.696C111.146 237.208 111.429 237.651 111.791 238.024C112.154 238.397 112.591 238.691 113.103 238.904C113.626 239.107 114.197 239.208 114.815 239.208C115.914 239.208 116.815 238.92 117.519 238.344C118.223 237.768 118.65 236.931 118.799 235.832H116.607C116.533 236.344 116.346 236.755 116.047 237.064C115.759 237.363 115.343 237.512 114.799 237.512C114.447 237.512 114.149 237.432 113.903 237.272C113.658 237.112 113.461 236.909 113.311 236.664C113.173 236.408 113.071 236.125 113.007 235.816C112.943 235.507 112.911 235.203 112.911 234.904C112.911 234.595 112.943 234.285 113.007 233.976C113.071 233.656 113.178 233.368 113.327 233.112C113.487 232.845 113.69 232.632 113.935 232.472C114.181 232.301 114.485 232.216 114.847 232.216C115.818 232.216 116.378 232.691 116.527 233.64ZM122.963 230.728V228.248H120.691V230.728H119.315V232.248H120.691V237.128C120.691 237.544 120.76 237.88 120.899 238.136C121.037 238.392 121.224 238.589 121.459 238.728C121.704 238.867 121.981 238.957 122.291 239C122.611 239.053 122.947 239.08 123.299 239.08C123.523 239.08 123.752 239.075 123.987 239.064C124.221 239.053 124.435 239.032 124.627 239V237.24C124.52 237.261 124.408 237.277 124.291 237.288C124.173 237.299 124.051 237.304 123.923 237.304C123.539 237.304 123.283 237.24 123.155 237.112C123.027 236.984 122.963 236.728 122.963 236.344V232.248H124.627V230.728H122.963ZM132.945 232.328V233.928C133.222 233.928 133.51 233.939 133.809 233.96C134.118 233.971 134.401 234.029 134.657 234.136C134.913 234.232 135.121 234.392 135.281 234.616C135.452 234.84 135.537 235.165 135.537 235.592C135.537 236.136 135.361 236.568 135.009 236.888C134.657 237.197 134.225 237.352 133.713 237.352C133.382 237.352 133.094 237.293 132.849 237.176C132.614 237.059 132.417 236.904 132.257 236.712C132.097 236.509 131.974 236.275 131.889 236.008C131.804 235.731 131.756 235.443 131.745 235.144H129.585C129.574 235.795 129.665 236.371 129.857 236.872C130.06 237.373 130.342 237.8 130.705 238.152C131.068 238.493 131.505 238.755 132.017 238.936C132.54 239.117 133.116 239.208 133.745 239.208C134.289 239.208 134.812 239.128 135.313 238.968C135.814 238.808 136.257 238.573 136.641 238.264C137.025 237.955 137.329 237.571 137.553 237.112C137.788 236.653 137.905 236.131 137.905 235.544C137.905 234.904 137.729 234.355 137.377 233.896C137.025 233.437 136.54 233.139 135.921 233V232.968C136.444 232.819 136.833 232.536 137.089 232.12C137.356 231.704 137.489 231.224 137.489 230.68C137.489 230.179 137.377 229.736 137.153 229.352C136.929 228.968 136.636 228.643 136.273 228.376C135.921 228.109 135.521 227.912 135.073 227.784C134.625 227.645 134.177 227.576 133.729 227.576C133.153 227.576 132.63 227.672 132.161 227.864C131.692 228.045 131.286 228.307 130.945 228.648C130.614 228.989 130.353 229.4 130.161 229.88C129.98 230.349 129.878 230.872 129.857 231.448H132.017C132.006 230.872 132.145 230.397 132.433 230.024C132.732 229.64 133.169 229.448 133.745 229.448C134.161 229.448 134.529 229.576 134.849 229.832C135.169 230.088 135.329 230.456 135.329 230.936C135.329 231.256 135.249 231.512 135.089 231.704C134.94 231.896 134.742 232.045 134.497 232.152C134.262 232.248 134.006 232.307 133.729 232.328C133.452 232.349 133.19 232.349 132.945 232.328Z" fill="white"/>
</svg>
